<?xml version="1.0" encoding="UTF-8"?>
<svg width="100" height="100" viewBox="0 0 100 100" xmlns="http://www.w3.org/2000/svg">
  <!-- Books on shelf pattern - created for Athena Library Management -->
  
  <!-- Shelf 1 -->
  <rect x="5" y="10" width="90" height="20" fill="none" stroke="#ffffff" stroke-width="1" opacity="0.3"/>
  
  <!-- Books on shelf 1 -->
  <rect x="10" y="12" width="8" height="16" fill="#ffffff" opacity="0.3"/>
  <rect x="19" y="12" width="5" height="16" fill="#ffffff" opacity="0.2"/>
  <rect x="25" y="12" width="10" height="16" fill="#ffffff" opacity="0.3"/>
  <rect x="36" y="12" width="7" height="16" fill="#ffffff" opacity="0.2"/>
  <rect x="44" y="12" width="9" height="16" fill="#ffffff" opacity="0.3"/>
  <rect x="54" y="12" width="12" height="16" fill="#ffffff" opacity="0.2"/>
  <rect x="67" y="12" width="5" height="16" fill="#ffffff" opacity="0.3"/>
  <rect x="73" y="12" width="8" height="16" fill="#ffffff" opacity="0.2"/>
  <rect x="82" y="12" width="6" height="16" fill="#ffffff" opacity="0.3"/>
  
  <!-- Shelf 2 -->
  <rect x="5" y="40" width="90" height="20" fill="none" stroke="#ffffff" stroke-width="1" opacity="0.3"/>
  
  <!-- Books on shelf 2 -->
  <rect x="10" y="42" width="10" height="16" fill="#ffffff" opacity="0.2"/>
  <rect x="21" y="42" width="7" height="16" fill="#ffffff" opacity="0.3"/>
  <rect x="29" y="42" width="5" height="16" fill="#ffffff" opacity="0.2"/>
  <rect x="35" y="42" width="12" height="16" fill="#ffffff" opacity="0.3"/>
  <rect x="48" y="42" width="6" height="16" fill="#ffffff" opacity="0.2"/>
  <rect x="55" y="42" width="9" height="16" fill="#ffffff" opacity="0.3"/>
  <rect x="65" y="42" width="8" height="16" fill="#ffffff" opacity="0.2"/>
  <rect x="74" y="42" width="11" height="16" fill="#ffffff" opacity="0.3"/>
  
  <!-- Shelf 3 -->
  <rect x="5" y="70" width="90" height="20" fill="none" stroke="#ffffff" stroke-width="1" opacity="0.3"/>
  
  <!-- Books on shelf 3 -->
  <rect x="8" y="72" width="6" height="16" fill="#ffffff" opacity="0.3"/>
  <rect x="15" y="72" width="11" height="16" fill="#ffffff" opacity="0.2"/>
  <rect x="27" y="72" width="8" height="16" fill="#ffffff" opacity="0.3"/>
  <rect x="36" y="72" width="5" height="16" fill="#ffffff" opacity="0.2"/>
  <rect x="42" y="72" width="7" height="16" fill="#ffffff" opacity="0.3"/>
  <rect x="50" y="72" width="10" height="16" fill="#ffffff" opacity="0.2"/>
  <rect x="61" y="72" width="6" height="16" fill="#ffffff" opacity="0.3"/>
  <rect x="68" y="72" width="9" height="16" fill="#ffffff" opacity="0.2"/>
  <rect x="78" y="72" width="8" height="16" fill="#ffffff" opacity="0.3"/>
</svg>
